<svg width="24" height="24" viewBox="0 0 24 24" fill="none" xmlns="http://www.w3.org/2000/svg">
<g id="bell">
<path id="Vector" fill-rule="evenodd" clip-rule="evenodd" d="M12 2.75C10.6076 2.75 9.27225 3.30312 8.28769 4.28769C7.30312 5.27226 6.75 6.60761 6.75 8C6.75 11.6105 5.9753 13.9865 5.15842 15.4841C5.00134 15.7721 4.8433 16.0265 4.68982 16.25H19.3102C19.1567 16.0265 18.9987 15.7721 18.8416 15.4841C18.0247 13.9865 17.25 11.6105 17.25 8C17.25 6.60761 16.6969 5.27225 15.7123 4.28769C14.7277 3.30312 13.3924 2.75 12 2.75ZM21.4228 16.3805L21.4142 16.3742C21.4029 16.3658 21.3815 16.3494 21.3512 16.3242C21.2908 16.2739 21.1952 16.1885 21.0757 16.0623C20.8371 15.8104 20.501 15.394 20.1584 14.7659C19.4753 13.5135 18.75 11.3895 18.75 8C18.75 6.20979 18.0388 4.4929 16.773 3.22703C15.5071 1.96116 13.7902 1.25 12 1.25C10.2098 1.25 8.4929 1.96116 7.22703 3.22703C5.96116 4.4929 5.25 6.20979 5.25 8C5.25 11.3895 4.5247 13.5135 3.84158 14.7659C3.49898 15.394 3.16292 15.8104 2.92428 16.0623C2.80477 16.1885 2.70919 16.2739 2.64877 16.3242C2.61855 16.3494 2.5971 16.3658 2.58583 16.3742L2.5772 16.3805C2.30697 16.5649 2.18719 16.9036 2.28218 17.2173C2.37795 17.5337 2.6695 17.75 3 17.75H21C21.3305 17.75 21.622 17.5337 21.7178 17.2173C21.8128 16.9036 21.693 16.5649 21.4228 16.3805ZM9.93866 20.3428C10.3016 20.1432 10.7577 20.2757 10.9572 20.6387C11.0599 20.8254 11.2108 20.9811 11.3943 21.0896C11.5777 21.1981 11.7869 21.2553 12 21.2553C12.2131 21.2553 12.4223 21.1981 12.6057 21.0896C12.7892 20.9811 12.9401 20.8254 13.0428 20.6387C13.2423 20.2757 13.6984 20.1432 14.0613 20.3428C14.4243 20.5423 14.5568 20.9984 14.3572 21.3613C14.1251 21.7835 13.7839 22.1355 13.3693 22.3808C12.9546 22.626 12.4817 22.7553 12 22.7553C11.5183 22.7553 11.0454 22.626 10.6307 22.3808C10.2161 22.1355 9.87487 21.7835 9.64278 21.3613C9.44322 20.9984 9.57569 20.5423 9.93866 20.3428Z" fill="#212D34"/>
</g>
</svg>
