<svg width="24" height="24" viewBox="0 0 24 24" fill="none" xmlns="http://www.w3.org/2000/svg">
<path d="M3 2.25C3.41421 2.25 3.75 2.58579 3.75 3V19C3.75 19.3315 3.88179 19.6494 4.11621 19.8838C4.35063 20.1182 4.66848 20.25 5 20.25H21C21.4142 20.25 21.75 20.5858 21.75 21C21.75 21.4142 21.4142 21.75 21 21.75H5C4.27065 21.75 3.57139 21.4601 3.05566 20.9443C2.53994 20.4286 2.25 19.7293 2.25 19V3C2.25 2.58579 2.58579 2.25 3 2.25ZM10 7.25C10.9665 7.25 11.75 8.0335 11.75 9V16C11.75 16.9665 10.9665 17.75 10 17.75H8C7.0335 17.75 6.25 16.9665 6.25 16V9C6.25 8.0335 7.0335 7.25 8 7.25H10ZM18 4.25C18.9665 4.25 19.75 5.0335 19.75 6V16C19.75 16.9665 18.9665 17.75 18 17.75H16C15.0335 17.75 14.25 16.9665 14.25 16V6C14.25 5.0335 15.0335 4.25 16 4.25H18ZM7.75 13.75V16C7.75 16.1381 7.86193 16.25 8 16.25H10C10.1381 16.25 10.25 16.1381 10.25 16V13.75H7.75ZM15.75 16C15.75 16.1381 15.8619 16.25 16 16.25H18C18.1381 16.25 18.25 16.1381 18.25 16V9.75H15.75V16ZM8 8.75C7.86193 8.75 7.75 8.86193 7.75 9V12.25H10.25V9C10.25 8.86193 10.1381 8.75 10 8.75H8ZM16 5.75C15.8619 5.75 15.75 5.86193 15.75 6V8.25H18.25V6C18.25 5.86193 18.1381 5.75 18 5.75H16Z" fill="#212D34"/>
</svg>
