<svg width="24" height="24" viewBox="0 0 24 24" fill="none" xmlns="http://www.w3.org/2000/svg">
<path d="M4.00012 17.2501C4.4143 17.2501 4.75012 17.5859 4.75012 18.0001V21.0001C4.75012 21.4142 4.4143 21.75 4.00012 21.7501C3.58591 21.7501 3.25012 21.4143 3.25012 21.0001V18.0001C3.25012 17.5858 3.58591 17.2501 4.00012 17.2501ZM8.00012 13.2501C8.4143 13.2501 8.75012 13.5859 8.75012 14.0001V21.0001C8.75012 21.4142 8.4143 21.75 8.00012 21.7501C7.58591 21.7501 7.25012 21.4143 7.25012 21.0001V14.0001C7.25012 13.5858 7.58591 13.2501 8.00012 13.2501ZM12.0001 15.2501C12.4143 15.2501 12.7501 15.5859 12.7501 16.0001V21.0001C12.7501 21.4142 12.4143 21.75 12.0001 21.7501C11.5859 21.7501 11.2501 21.4143 11.2501 21.0001V16.0001C11.2501 15.5858 11.5859 15.2501 12.0001 15.2501ZM16.0001 13.2501C16.4143 13.2501 16.7501 13.5859 16.7501 14.0001V21.0001C16.7501 21.4142 16.4143 21.75 16.0001 21.7501C15.5859 21.7501 15.2501 21.4143 15.2501 21.0001V14.0001C15.2501 13.5858 15.5859 13.2501 16.0001 13.2501ZM20.0001 9.25006C20.4143 9.2501 20.7501 9.58587 20.7501 10.0001V21.0001C20.7501 21.4142 20.4143 21.75 20.0001 21.7501C19.5859 21.7501 19.2501 21.4143 19.2501 21.0001V10.0001C19.2501 9.58585 19.5859 9.25006 20.0001 9.25006ZM21.4698 2.46979C21.7627 2.1769 22.2375 2.1769 22.5304 2.46979C22.8232 2.76268 22.8233 3.23746 22.5304 3.53033L13.8849 12.1768L13.8839 12.1758C13.6504 12.4096 13.3306 12.543 13.0001 12.543C12.6695 12.543 12.3489 12.4099 12.1154 12.1758L9.00012 9.06158L2.5304 15.5303C2.23752 15.8232 1.76273 15.8231 1.46985 15.5303C1.17699 15.2374 1.17697 14.7627 1.46985 14.4698L8.11731 7.8233L8.20813 7.7403C8.43055 7.55808 8.71105 7.45807 9.0011 7.45807L9.12415 7.46393C9.41002 7.49233 9.67888 7.61852 9.88391 7.8233H9.88489L13.0001 10.9385L21.4698 2.46979Z" fill="#212D34"/>
</svg>
