<svg width="24" height="24" viewBox="0 0 24 24" fill="none" xmlns="http://www.w3.org/2000/svg">
<path d="M7.70007 2.14297C8.07969 1.97738 8.52172 2.15106 8.68738 2.53067C8.85262 2.91007 8.67985 3.35224 8.30066 3.51797C6.91582 4.12229 5.69995 5.05695 4.75964 6.23965C3.81949 7.42225 3.18274 8.81693 2.90613 10.3022C2.6296 11.7874 2.72122 13.3184 3.17273 14.7602C3.62432 16.2019 4.42258 17.5115 5.49695 18.5736C6.57135 19.6357 7.89005 20.4189 9.33679 20.8539C10.7834 21.2888 12.3149 21.3632 13.7968 21.0697C15.2788 20.7762 16.6669 20.124 17.8387 19.1703C19.0106 18.2166 19.9309 16.9896 20.5194 15.5981C20.6808 15.2167 21.1214 15.0383 21.5028 15.1996C21.8838 15.3612 22.0625 15.8018 21.9012 16.183C21.2174 17.8 20.1476 19.2251 18.786 20.3334C17.4242 21.4417 15.8111 22.2002 14.0887 22.5414C12.3664 22.8825 10.5857 22.796 8.90417 22.2904C7.22285 21.7848 5.69085 20.8743 4.44226 19.64C3.1937 18.4056 2.2659 16.8839 1.74109 15.2084C1.21638 13.5329 1.11015 11.7539 1.43152 10.0277C1.75295 8.30168 2.49228 6.68043 3.58484 5.30606C4.67759 3.93161 6.09074 2.84529 7.70007 2.14297ZM13.0721 1.30411C15.54 1.55147 17.8465 2.64529 19.6005 4.39883C21.3545 6.15251 22.4483 8.45924 22.6962 10.9272C22.8004 11.968 21.9434 12.7494 20.9999 12.7494L12.9989 12.7504C12.5349 12.7504 12.0897 12.5667 11.7616 12.2387C11.4335 11.9105 11.2489 11.4644 11.2489 11.0004V3.0004C11.2493 2.05756 12.0302 1.19998 13.0721 1.30411ZM12.9218 2.79727C12.8813 2.79337 12.8468 2.80501 12.8143 2.83633C12.7784 2.87115 12.7491 2.92869 12.7489 3.0004V11.0004C12.7489 11.0665 12.7755 11.1303 12.8221 11.1772C12.869 11.224 12.9326 11.2504 12.9989 11.2504L20.9999 11.2494L21.0507 11.2445C21.0985 11.2347 21.1375 11.2121 21.1639 11.185C21.196 11.1519 21.208 11.1165 21.204 11.0766C20.9906 8.95308 20.0492 6.96831 18.5399 5.45938C17.0306 3.95051 15.0453 3.01004 12.9218 2.79727Z" fill="#212D34"/>
</svg>
