<svg width="24" height="24" viewBox="0 0 24 24" fill="none" xmlns="http://www.w3.org/2000/svg">
<path d="M3 2.25C3.41421 2.25 3.75 2.58579 3.75 3V19C3.75 19.3315 3.88179 19.6494 4.11621 19.8838C4.35063 20.1182 4.66848 20.25 5 20.25H21C21.4142 20.25 21.75 20.5858 21.75 21C21.75 21.4142 21.4142 21.75 21 21.75H5C4.27065 21.75 3.57139 21.4601 3.05566 20.9443C2.53994 20.4286 2.25 19.7293 2.25 19V3C2.25 2.58579 2.58579 2.25 3 2.25ZM15 12.25C15.9665 12.25 16.75 13.0335 16.75 14V16C16.75 16.9665 15.9665 17.75 15 17.75H8C7.0335 17.75 6.25 16.9665 6.25 16V14C6.25 13.0335 7.0335 12.25 8 12.25H15ZM8 13.75C7.86193 13.75 7.75 13.8619 7.75 14V16C7.75 16.1381 7.86193 16.25 8 16.25H10.25V13.75H8ZM11.75 16.25H15C15.1381 16.25 15.25 16.1381 15.25 16V14C15.25 13.8619 15.1381 13.75 15 13.75H11.75V16.25ZM18 4.25C18.9665 4.25 19.75 5.0335 19.75 6V8C19.75 8.9665 18.9665 9.75 18 9.75H8C7.0335 9.75 6.25 8.9665 6.25 8V6C6.25 5.0335 7.0335 4.25 8 4.25H18ZM15.75 8.25H18C18.1381 8.25 18.25 8.13807 18.25 8V6C18.25 5.86193 18.1381 5.75 18 5.75H15.75V8.25ZM8 5.75C7.86193 5.75 7.75 5.86193 7.75 6V8C7.75 8.13807 7.86193 8.25 8 8.25H14.25V5.75H8Z" fill="#212D34"/>
</svg>
