<svg width="24" height="24" viewBox="0 0 24 24" fill="none" xmlns="http://www.w3.org/2000/svg">
<g id="circle-chevron-up">
<path id="Vector" fill-rule="evenodd" clip-rule="evenodd" d="M12 2.75C6.89137 2.75 2.75 6.89137 2.75 12C2.75 17.1086 6.89137 21.25 12 21.25C17.1086 21.25 21.25 17.1086 21.25 12C21.25 6.89137 17.1086 2.75 12 2.75ZM1.25 12C1.25 6.06294 6.06294 1.25 12 1.25C17.9371 1.25 22.75 6.06294 22.75 12C22.75 17.9371 17.9371 22.75 12 22.75C6.06294 22.75 1.25 17.9371 1.25 12ZM12 10.0607L8.53033 13.5303C8.23744 13.8232 7.76256 13.8232 7.46967 13.5303C7.17678 13.2374 7.17678 12.7626 7.46967 12.4697L11.4697 8.46967C11.7626 8.17678 12.2374 8.17678 12.5303 8.46967L16.5303 12.4697C16.8232 12.7626 16.8232 13.2374 16.5303 13.5303C16.2374 13.8232 15.7626 13.8232 15.4697 13.5303L12 10.0607Z" fill="#212D34"/>
</g>
</svg>
