<svg width="24" height="24" viewBox="0 0 24 24" fill="none" xmlns="http://www.w3.org/2000/svg">
<g id="circle-info">
<path id="Vector" fill-rule="evenodd" clip-rule="evenodd" d="M2.75 12C2.75 6.89137 6.89137 2.75 12 2.75C17.1086 2.75 21.25 6.89137 21.25 12C21.25 17.1086 17.1086 21.25 12 21.25C6.89137 21.25 2.75 17.1086 2.75 12ZM12 1.25C6.06294 1.25 1.25 6.06294 1.25 12C1.25 17.9371 6.06294 22.75 12 22.75C17.9371 22.75 22.75 17.9371 22.75 12C22.75 6.06294 17.9371 1.25 12 1.25ZM10.5 10.75C10.0858 10.75 9.75 11.0858 9.75 11.5C9.75 11.9142 10.0858 12.25 10.5 12.25H11.25V15.25H10.5C10.0858 15.25 9.75 15.5858 9.75 16C9.75 16.4142 10.0858 16.75 10.5 16.75H12H13.5C13.9142 16.75 14.25 16.4142 14.25 16C14.25 15.5858 13.9142 15.25 13.5 15.25H12.75V11.5C12.75 11.0858 12.4142 10.75 12 10.75H10.5ZM12 7C11.4477 7 11 7.44772 11 8C11 8.55228 11.4477 9 12 9H12.01C12.5623 9 13.01 8.55228 13.01 8C13.01 7.44772 12.5623 7 12.01 7H12Z" fill="#212D34"/>
</g>
</svg>
