<svg width="24" height="24" viewBox="0 0 24 24" fill="none" xmlns="http://www.w3.org/2000/svg">
<g id="circle-question">
<path id="Vector" fill-rule="evenodd" clip-rule="evenodd" d="M12 2.75C6.89137 2.75 2.75 6.89137 2.75 12C2.75 17.1086 6.89137 21.25 12 21.25C17.1086 21.25 21.25 17.1086 21.25 12C21.25 6.89137 17.1086 2.75 12 2.75ZM1.25 12C1.25 6.06294 6.06294 1.25 12 1.25C17.9371 1.25 22.75 6.06294 22.75 12C22.75 17.9371 17.9371 22.75 12 22.75C6.06294 22.75 1.25 17.9371 1.25 12ZM12.3004 7.77792C11.7767 7.68809 11.2381 7.78651 10.78 8.05574C10.3219 8.32497 9.97383 8.74764 9.7975 9.24889C9.66004 9.63963 9.23186 9.84496 8.84111 9.70751C8.45037 9.57005 8.24504 9.14186 8.3825 8.75112C8.67638 7.91571 9.25644 7.21126 10.0199 6.76254C10.7834 6.31382 11.6811 6.1498 12.554 6.29951C13.4268 6.44923 14.2185 6.90303 14.7888 7.58053C15.359 8.25787 15.6712 9.1151 15.67 10.0005C15.6698 11.3984 14.6312 12.3439 13.836 12.874C13.4155 13.1544 13.0004 13.3614 12.6933 13.4979C12.5388 13.5666 12.4089 13.6186 12.3159 13.654C12.2693 13.6717 12.2319 13.6854 12.2049 13.6949L12.1726 13.7063L12.1627 13.7096L12.1594 13.7108L12.1581 13.7112L12.1576 13.7114C12.1574 13.7114 12.1572 13.7115 11.92 13L12.1572 13.7115C11.7642 13.8425 11.3395 13.6301 11.2085 13.2372C11.0776 12.8446 11.2895 12.4203 11.6817 12.2889L11.6822 12.2887L11.6824 12.2886L11.6846 12.2879L11.7024 12.2816C11.7195 12.2756 11.7464 12.2658 11.7819 12.2523C11.853 12.2252 11.9575 12.1834 12.0841 12.1271C12.3396 12.0136 12.6744 11.8457 13.004 11.626C13.7087 11.1562 14.17 10.6019 14.17 10L14.17 9.99889C14.1708 9.46753 13.9835 8.95304 13.6413 8.54653C13.2991 8.14003 12.8241 7.86775 12.3004 7.77792ZM15.67 10.0005V10H14.92L15.67 10.0011L15.67 10.0005ZM12 16C11.4477 16 11 16.4477 11 17C11 17.5523 11.4477 18 12 18H12.01C12.5623 18 13.01 17.5523 13.01 17C13.01 16.4477 12.5623 16 12.01 16H12Z" fill="#212D34"/>
</g>
</svg>
