<svg width="24" height="24" viewBox="0 0 24 24" fill="none" xmlns="http://www.w3.org/2000/svg">
<g id="circle-chevron-left">
<path id="Vector" fill-rule="evenodd" clip-rule="evenodd" d="M12 2.75C6.89137 2.75 2.75 6.89137 2.75 12C2.75 17.1086 6.89137 21.25 12 21.25C17.1086 21.25 21.25 17.1086 21.25 12C21.25 6.89137 17.1086 2.75 12 2.75ZM1.25 12C1.25 6.06294 6.06294 1.25 12 1.25C17.9371 1.25 22.75 6.06294 22.75 12C22.75 17.9371 17.9371 22.75 12 22.75C6.06294 22.75 1.25 17.9371 1.25 12ZM13.5303 7.46967C13.8232 7.76256 13.8232 8.23744 13.5303 8.53033L10.0607 12L13.5303 15.4697C13.8232 15.7626 13.8232 16.2374 13.5303 16.5303C13.2374 16.8232 12.7626 16.8232 12.4697 16.5303L8.46967 12.5303C8.17678 12.2374 8.17678 11.7626 8.46967 11.4697L12.4697 7.46967C12.7626 7.17678 13.2374 7.17678 13.5303 7.46967Z" fill="#212D34"/>
</g>
</svg>
