<svg width="24" height="24" viewBox="0 0 24 24" fill="none" xmlns="http://www.w3.org/2000/svg">
<g id="circle-chevron-down">
<path id="Vector" fill-rule="evenodd" clip-rule="evenodd" d="M12 2.75C6.89137 2.75 2.75 6.89137 2.75 12C2.75 17.1086 6.89137 21.25 12 21.25C17.1086 21.25 21.25 17.1086 21.25 12C21.25 6.89137 17.1086 2.75 12 2.75ZM1.25 12C1.25 6.06294 6.06294 1.25 12 1.25C17.9371 1.25 22.75 6.06294 22.75 12C22.75 17.9371 17.9371 22.75 12 22.75C6.06294 22.75 1.25 17.9371 1.25 12ZM7.46967 10.4697C7.76256 10.1768 8.23744 10.1768 8.53033 10.4697L12 13.9393L15.4697 10.4697C15.7626 10.1768 16.2374 10.1768 16.5303 10.4697C16.8232 10.7626 16.8232 11.2374 16.5303 11.5303L12.5303 15.5303C12.2374 15.8232 11.7626 15.8232 11.4697 15.5303L7.46967 11.5303C7.17678 11.2374 7.17678 10.7626 7.46967 10.4697Z" fill="#212D34"/>
</g>
</svg>
