<svg width="24" height="24" viewBox="0 0 24 24" fill="none" xmlns="http://www.w3.org/2000/svg">
<g id="circle-chevron-right">
<path id="Vector" fill-rule="evenodd" clip-rule="evenodd" d="M12 2.75C6.89137 2.75 2.75 6.89137 2.75 12C2.75 17.1086 6.89137 21.25 12 21.25C17.1086 21.25 21.25 17.1086 21.25 12C21.25 6.89137 17.1086 2.75 12 2.75ZM1.25 12C1.25 6.06294 6.06294 1.25 12 1.25C17.9371 1.25 22.75 6.06294 22.75 12C22.75 17.9371 17.9371 22.75 12 22.75C6.06294 22.75 1.25 17.9371 1.25 12ZM10.4697 7.46967C10.7626 7.17678 11.2374 7.17678 11.5303 7.46967L15.5303 11.4697C15.8232 11.7626 15.8232 12.2374 15.5303 12.5303L11.5303 16.5303C11.2374 16.8232 10.7626 16.8232 10.4697 16.5303C10.1768 16.2374 10.1768 15.7626 10.4697 15.4697L13.9393 12L10.4697 8.53033C10.1768 8.23744 10.1768 7.76256 10.4697 7.46967Z" fill="#212D34"/>
</g>
</svg>
