<svg width="24" height="24" viewBox="0 0 24 24" fill="none" xmlns="http://www.w3.org/2000/svg">
<g id="eye-off">
<path id="Vector" fill-rule="evenodd" clip-rule="evenodd" d="M1.46969 1.46967C1.76258 1.17678 2.23745 1.17678 2.53035 1.46967L22.5303 21.4697C22.8232 21.7626 22.8232 22.2374 22.5303 22.5303C22.2375 22.8232 21.7626 22.8232 21.4697 22.5303L17.3626 18.4232C16.0753 19.1017 14.6693 19.5306 13.2189 19.6852C11.5788 19.8599 9.92032 19.6799 8.35598 19.1572C6.79164 18.6346 5.35802 17.7815 4.15241 16.656C2.94681 15.5304 1.99741 14.1587 1.36865 12.6339C1.36525 12.6257 1.362 12.6174 1.3589 12.609C1.21305 12.2161 1.21305 11.7839 1.3589 11.391C1.362 11.3826 1.36525 11.3743 1.36865 11.3661C2.19541 9.36115 3.56949 7.63706 5.32505 6.38569L1.46969 2.53033C1.17679 2.23744 1.17679 1.76256 1.46969 1.46967ZM6.4028 7.46344C4.78197 8.55823 3.51407 10.1072 2.76211 11.9216C2.74531 11.9725 2.74531 12.0275 2.76211 12.0784C3.3089 13.3978 4.13198 14.5848 5.17604 15.5595C6.2244 16.5383 7.47102 17.28 8.83132 17.7345C10.1916 18.189 11.6338 18.3456 13.0599 18.1936C14.1655 18.0758 15.2414 17.7747 16.2441 17.3047L14.0678 15.1284C13.4494 15.5372 12.7189 15.7565 11.9673 15.75C10.9841 15.7414 10.0435 15.3471 9.34823 14.6518C8.65295 13.9565 8.25857 13.016 8.25002 12.0327C8.24349 11.2812 8.46279 10.5506 8.87157 9.93222L6.4028 7.46344ZM9.96964 11.0303C9.82346 11.3363 9.74697 11.6743 9.74997 12.0197C9.75509 12.6096 9.99172 13.174 10.4089 13.5911C10.8261 14.0083 11.3904 14.2449 11.9803 14.2501C12.3257 14.2531 12.6637 14.1766 12.9697 14.0304L9.96964 11.0303ZM17.0623 7.12491C15.1803 6.02055 12.9885 5.56251 10.8218 5.82073C10.4105 5.86975 10.0373 5.57605 9.98829 5.16475C9.93927 4.75345 10.233 4.38029 10.6443 4.33127C13.1363 4.03429 15.657 4.56108 17.8215 5.83119C19.986 7.1013 21.6753 9.04492 22.6314 11.3652C22.6332 11.3695 22.6349 11.3738 22.6366 11.3781C22.6381 11.382 22.6397 11.386 22.6411 11.39C22.787 11.7829 22.787 12.2151 22.6411 12.608C22.638 12.6164 22.6348 12.6247 22.6314 12.633C22.2382 13.5862 21.7186 14.4821 21.0866 15.2967C20.8327 15.624 20.3615 15.6835 20.0343 15.4296C19.707 15.1757 19.6475 14.7045 19.9015 14.3773C20.4474 13.6736 20.8969 12.9001 21.2379 12.0774C21.2547 12.0264 21.2547 11.9715 21.2379 11.9206C20.4053 9.91019 18.9393 8.22631 17.0623 7.12491Z" fill="#212D34"/>
</g>
</svg>
