<svg width="24" height="24" viewBox="0 0 24 24" fill="none" xmlns="http://www.w3.org/2000/svg">
<g id="eye">
<path id="Vector" fill-rule="evenodd" clip-rule="evenodd" d="M12 5.75061C10.0196 5.75061 8.08376 6.33865 6.43794 7.44018C4.79701 8.53843 3.51805 10.0978 2.76211 11.9216C2.74531 11.9725 2.74531 12.0275 2.76211 12.0784C3.51806 13.9022 4.79701 15.4616 6.43794 16.5598C8.08376 17.6613 10.0196 18.2494 12 18.2494C13.9804 18.2494 15.9163 17.6613 17.5621 16.5598C19.203 15.4616 20.482 13.9022 21.2379 12.0784C21.2547 12.0275 21.2547 11.9725 21.2379 11.9216C20.482 10.0978 19.203 8.53843 17.5621 7.44018C15.9163 6.33865 13.9804 5.75061 12 5.75061ZM5.60363 6.19361C7.49632 4.92685 9.72253 4.25061 12 4.25061C14.2775 4.25061 16.5037 4.92685 18.3964 6.19361C20.2891 7.46037 21.763 9.26059 22.6314 11.366C22.6348 11.3743 22.638 11.3826 22.6411 11.391C22.787 11.7839 22.787 12.2161 22.6411 12.609C22.638 12.6174 22.6348 12.6257 22.6314 12.6339C21.763 14.7394 20.2891 16.5396 18.3964 17.8064C16.5037 19.0731 14.2775 19.7494 12 19.7494C9.72253 19.7494 7.49632 19.0731 5.60363 17.8064C3.71094 16.5396 2.237 14.7394 1.36867 12.6339C1.36526 12.6257 1.362 12.6174 1.3589 12.609C1.21305 12.2161 1.21305 11.7839 1.3589 11.391C1.362 11.3826 1.36526 11.3743 1.36867 11.366C2.237 9.26059 3.71094 7.46037 5.60363 6.19361ZM12 9.74999C10.7574 9.74999 9.75002 10.7574 9.75002 12C9.75002 13.2426 10.7574 14.25 12 14.25C13.2427 14.25 14.25 13.2426 14.25 12C14.25 10.7574 13.2427 9.74999 12 9.74999ZM8.25002 12C8.25002 9.92893 9.92895 8.24999 12 8.24999C14.0711 8.24999 15.75 9.92893 15.75 12C15.75 14.0711 14.0711 15.75 12 15.75C9.92895 15.75 8.25002 14.0711 8.25002 12Z" fill="#212D34"/>
</g>
</svg>
