<svg width="24" height="24" viewBox="0 0 24 24" fill="none" xmlns="http://www.w3.org/2000/svg">
<path d="M15 1.25C15.1989 1.25 15.3896 1.32907 15.5303 1.46973L20.5303 6.46973C20.6709 6.61038 20.75 6.80109 20.75 7V20C20.75 20.7293 20.4601 21.4286 19.9443 21.9443C19.4286 22.4601 18.7293 22.75 18 22.75H6C5.27065 22.75 4.57139 22.4601 4.05566 21.9443C3.53994 21.4286 3.25 20.7293 3.25 20V4C3.25 3.27065 3.53994 2.57139 4.05566 2.05566C4.57139 1.53994 5.27065 1.25 6 1.25H15ZM6 2.75C5.66848 2.75 5.35063 2.88179 5.11621 3.11621C4.88179 3.35063 4.75 3.66848 4.75 4V20C4.75 20.3315 4.88179 20.6494 5.11621 20.8838C5.35063 21.1182 5.66848 21.25 6 21.25H18C18.3315 21.25 18.6494 21.1182 18.8838 20.8838C19.1182 20.6494 19.25 20.3315 19.25 20V8.75H16C15.2707 8.75 14.5714 8.46006 14.0557 7.94434C13.5399 7.42861 13.25 6.72935 13.25 6V2.75H6ZM16 16.25C16.4142 16.25 16.75 16.5858 16.75 17C16.75 17.4142 16.4142 17.75 16 17.75H8C7.58579 17.75 7.25 17.4142 7.25 17C7.25 16.5858 7.58579 16.25 8 16.25H16ZM16 12.25C16.4142 12.25 16.75 12.5858 16.75 13C16.75 13.4142 16.4142 13.75 16 13.75H8C7.58579 13.75 7.25 13.4142 7.25 13C7.25 12.5858 7.58579 12.25 8 12.25H16ZM10 8.25C10.4142 8.25 10.75 8.58579 10.75 9C10.75 9.41421 10.4142 9.75 10 9.75H8C7.58579 9.75 7.25 9.41421 7.25 9C7.25 8.58579 7.58579 8.25 8 8.25H10ZM14.75 6C14.75 6.33152 14.8818 6.64937 15.1162 6.88379C15.3506 7.11821 15.6685 7.25 16 7.25H19.1895L14.75 2.81055V6Z" fill="#212D34"/>
</svg>
