<svg width="24" height="24" viewBox="0 0 24 24" fill="none" xmlns="http://www.w3.org/2000/svg">
<g id="file">
<path id="Vector" fill-rule="evenodd" clip-rule="evenodd" d="M4.05546 2.05546C4.57118 1.53973 5.27065 1.25 6 1.25H14H15C15.1989 1.25 15.3897 1.32902 15.5303 1.46967L20.5303 6.46967C20.671 6.61032 20.75 6.80109 20.75 7V8V20C20.75 20.7293 20.4603 21.4288 19.9445 21.9445C19.4288 22.4603 18.7293 22.75 18 22.75H6C5.27065 22.75 4.57118 22.4603 4.05546 21.9445C3.53973 21.4288 3.25 20.7293 3.25 20V4C3.25 3.27065 3.53973 2.57118 4.05546 2.05546ZM19.1893 7.25L14.75 2.81066V6C14.75 6.33152 14.8817 6.64946 15.1161 6.88388C15.3505 7.1183 15.6685 7.25 16 7.25H19.1893ZM13.25 2.75V6C13.25 6.72935 13.5397 7.42882 14.0555 7.94454C14.5712 8.46027 15.2707 8.75 16 8.75H19.25V20C19.25 20.3315 19.1183 20.6495 18.8839 20.8839C18.6495 21.1183 18.3315 21.25 18 21.25H6C5.66848 21.25 5.35054 21.1183 5.11612 20.8839C4.8817 20.6495 4.75 20.3315 4.75 20V4C4.75 3.66848 4.8817 3.35054 5.11612 3.11612C5.35054 2.8817 5.66848 2.75 6 2.75H13.25Z" fill="#212D34"/>
</g>
</svg>
