<svg width="24" height="24" viewBox="0 0 24 24" fill="none" xmlns="http://www.w3.org/2000/svg">
<g id="gear">
<path id="Vector" fill-rule="evenodd" clip-rule="evenodd" d="M11.5306 1.75C10.7548 1.75 10.0716 2.2607 9.8521 3.00473L9.37425 4.62414C9.35368 4.69387 9.28893 4.77864 9.16506 4.82957C8.56399 5.07672 8.00113 5.39707 7.48752 5.77934C7.38335 5.85687 7.2806 5.86967 7.2114 5.85312L5.38823 5.41711C4.63572 5.23715 3.85436 5.57271 3.4667 6.24231L2.95245 7.13056C2.57249 7.78684 2.65846 8.61316 3.16538 9.17717L4.38445 10.5336C4.43256 10.5871 4.47062 10.6852 4.45058 10.8158C4.39127 11.2023 4.36057 11.5978 4.36057 12C4.36057 12.4022 4.39127 12.7977 4.45058 13.1842C4.47062 13.3148 4.43256 13.4129 4.38445 13.4664L3.16538 14.8228C2.65846 15.3868 2.57249 16.2132 2.95245 16.8694L3.4667 17.7577C3.85436 18.4273 4.63572 18.7628 5.38823 18.5829L7.21141 18.1469C7.2806 18.1303 7.38335 18.1431 7.48752 18.2207C8.00113 18.6029 8.56399 18.9233 9.16506 19.1704C9.28892 19.2214 9.35367 19.3061 9.37425 19.3759L9.8521 20.9953C10.0716 21.7393 10.7548 22.25 11.5306 22.25H12.6911C13.4669 22.25 14.15 21.7393 14.3696 20.9953L14.8475 19.3756C14.8681 19.3059 14.9328 19.2211 15.0566 19.1702C15.6575 18.9231 16.2203 18.6028 16.7337 18.2206C16.8379 18.143 16.9407 18.1302 17.0099 18.1468L18.6386 18.5363C19.3911 18.7162 20.1725 18.3807 20.5601 17.7111L21.1343 16.7193C21.5143 16.063 21.4283 15.2367 20.9214 14.6727L19.8368 13.4659C19.7887 13.4124 19.7506 13.3143 19.7706 13.1838C19.8299 12.7974 19.8606 12.402 19.8606 12C19.8606 11.598 19.8299 11.2026 19.7706 10.8162C19.7506 10.6857 19.7887 10.5876 19.8368 10.5341L20.9214 9.32728C21.4283 8.76327 21.5143 7.93695 21.1343 7.28067L20.5601 6.2889C20.1725 5.6193 19.3911 5.28375 18.6386 5.46371L17.0099 5.85322C16.9407 5.86976 16.8379 5.85696 16.7337 5.77943C16.2203 5.39724 15.6575 5.07694 15.0566 4.82981C14.9328 4.77887 14.8681 4.69411 14.8475 4.62438L14.3696 3.00473C14.15 2.2607 13.4669 1.75 12.6911 1.75H11.5306ZM11.2908 3.42925C11.3221 3.32296 11.4197 3.25 11.5306 3.25H12.6911C12.8019 3.25 12.8995 3.32296 12.9309 3.42925L13.4088 5.0489C13.5748 5.61149 14.0002 6.01723 14.4861 6.21706C14.97 6.41607 15.4237 6.67423 15.8381 6.98271C16.2504 7.28953 16.8019 7.44526 17.3587 7.31208L18.9875 6.92257C19.095 6.89686 19.2066 6.9448 19.262 7.04046L19.8362 8.03223C19.8904 8.12598 19.8782 8.24403 19.8057 8.3246L18.7211 9.53138C18.3335 9.96266 18.2092 10.5299 18.288 11.0437C18.3357 11.355 18.3606 11.6744 18.3606 12C18.3606 12.3256 18.3357 12.645 18.288 12.9563C18.2092 13.4701 18.3335 14.0373 18.7211 14.4686L19.8057 15.6754C19.8782 15.756 19.8904 15.874 19.8362 15.9678L19.262 16.9595C19.2066 17.0552 19.095 17.1031 18.9875 17.0774L17.3587 16.6879C16.8019 16.5547 16.2504 16.7105 15.8381 17.0173C15.4237 17.3258 14.97 17.5839 14.4861 17.7829C14.0002 17.9828 13.5748 18.3885 13.4088 18.9511L12.9309 20.5708C12.8995 20.677 12.8019 20.75 12.6911 20.75H11.5306C11.4197 20.75 11.3221 20.677 11.2908 20.5708L10.8129 18.9513C10.6469 18.3887 10.2214 17.9829 9.73549 17.7831C9.25148 17.5841 8.79767 17.3259 8.38311 17.0174C7.97089 16.7106 7.4194 16.5548 6.86252 16.688L5.03934 17.124C4.93184 17.1497 4.82022 17.1018 4.76484 17.0061L4.25058 16.1179C4.19631 16.0241 4.20859 15.9061 4.281 15.8255L5.50008 14.4691C5.88773 14.0378 6.01207 13.4705 5.93323 12.9567C5.88543 12.6452 5.86057 12.3258 5.86057 12C5.86057 11.6742 5.88543 11.3548 5.93323 11.0433C6.01207 10.5295 5.88773 9.9622 5.50008 9.53088L4.281 8.17449C4.20859 8.09391 4.19631 7.97587 4.25058 7.88211L4.76484 6.99386C4.82022 6.8982 4.93184 6.85027 5.03934 6.87598L6.86252 7.31198C7.4194 7.44516 7.97089 7.28944 8.3831 6.98263C8.79766 6.67409 9.25148 6.41589 9.7355 6.21687C10.2214 6.01707 10.6469 5.6113 10.8129 5.04866L11.2908 3.42925ZM9.75001 12C9.75001 10.7574 10.7574 9.75 12 9.75C13.2427 9.75 14.25 10.7574 14.25 12C14.25 13.2426 13.2427 14.25 12 14.25C10.7574 14.25 9.75001 13.2426 9.75001 12ZM12 8.25C9.92894 8.25 8.25001 9.92893 8.25001 12C8.25001 14.0711 9.92894 15.75 12 15.75C14.0711 15.75 15.75 14.0711 15.75 12C15.75 9.92893 14.0711 8.25 12 8.25Z" fill="#212D34"/>
</g>
</svg>
