<svg width="24" height="24" viewBox="0 0 24 24" fill="none" xmlns="http://www.w3.org/2000/svg">
<g id="info">
<path id="Vector" fill-rule="evenodd" clip-rule="evenodd" d="M12 5C11.4477 5 11 5.44772 11 6C11 6.55228 11.4477 7 12 7H12.01C12.5623 7 13.01 6.55228 13.01 6C13.01 5.44772 12.5623 5 12.01 5H12ZM9.25 10C9.25 9.58579 9.58579 9.25 10 9.25H12C12.4142 9.25 12.75 9.58579 12.75 10L12.75 17.25H14C14.4142 17.25 14.75 17.5858 14.75 18C14.75 18.4142 14.4142 18.75 14 18.75H12H10C9.58579 18.75 9.25 18.4142 9.25 18C9.25 17.5858 9.58579 17.25 10 17.25H11.25L11.25 10.75H10C9.58579 10.75 9.25 10.4142 9.25 10Z" fill="#212D34"/>
</g>
</svg>
