<svg width="24" height="24" viewBox="0 0 24 24" fill="none" xmlns="http://www.w3.org/2000/svg">
<g id="link">
<path id="Vector" fill-rule="evenodd" clip-rule="evenodd" d="M13.5303 4.53028C15.2307 2.82984 17.8229 2.88351 19.4697 4.53031C21.1165 6.1771 21.1701 8.76918 19.4697 10.4697L16.9697 12.9697C15.2626 14.6768 12.7374 14.6768 11.0303 12.9697L10.5303 12.4697C10.2374 12.1768 9.76257 12.1768 9.46968 12.4697C9.17679 12.7625 9.17679 13.2374 9.46968 13.5303L9.96968 14.0303C12.2626 16.3232 15.7375 16.3232 18.0304 14.0303L20.5304 11.5303C22.8299 9.23078 22.7495 5.68888 20.5303 3.46965C18.3111 1.25042 14.7691 1.17013 12.4697 3.46962L10.9697 4.96962C10.6768 5.26251 10.6768 5.73738 10.9697 6.03028C11.2626 6.32317 11.7374 6.32317 12.0303 6.03028L13.5303 4.53028ZM14.0303 9.96967C11.7374 7.67677 8.26258 7.67677 5.96968 9.96966L3.46965 12.4697L3.46964 12.4697C1.17016 14.7692 1.25049 18.3111 3.46968 20.5303C5.68888 22.7496 9.23089 22.8299 11.5304 20.5304L13.0304 19.0304C13.3232 18.7375 13.3232 18.2626 13.0304 17.9697C12.7375 17.6768 12.2626 17.6768 11.9697 17.9697L10.4697 19.4697C8.76927 21.1701 6.17712 21.1165 4.53034 19.4697C2.88357 17.8229 2.82988 15.2308 4.5303 13.5303L4.53031 13.5303L7.03034 11.0303C8.73745 9.32322 11.2626 9.32322 12.9697 11.0303L13.4697 11.5303C13.7626 11.8232 14.2374 11.8232 14.5303 11.5303C14.8232 11.2374 14.8232 10.7626 14.5303 10.4697L14.0303 9.96967Z" fill="#212D34"/>
</g>
</svg>
