<svg width="24" height="24" viewBox="0 0 24 24" fill="none" xmlns="http://www.w3.org/2000/svg">
<path d="M11.4219 1.27457C12.8405 1.13127 14.2621 1.51981 15.4102 2.36539C16.558 3.21103 17.351 4.45353 17.6348 5.85074C17.7169 6.25653 17.4546 6.6531 17.0488 6.7355C16.6432 6.81758 16.2476 6.55509 16.165 6.14957C15.9553 5.11676 15.369 4.19849 14.5205 3.57339C13.6721 2.94843 12.6217 2.66094 11.5732 2.76675C10.5246 2.87268 9.55212 3.36448 8.8457 4.14664C8.13955 4.92867 7.74903 5.9455 7.75 6.99918V10.2502H19C20.5187 10.2502 21.7499 11.4814 21.75 13.0002V20.0002C21.7498 21.5188 20.5187 22.7502 19 22.7502H5C3.48135 22.7502 2.25022 21.5188 2.25 20.0002V13.0002C2.25008 11.4814 3.48127 10.2502 5 10.2502H6.25V7.00015C6.24879 5.57483 6.77725 4.19967 7.73242 3.14175C8.68811 2.0836 10.0033 1.41794 11.4219 1.27457ZM5 11.7502C4.3097 11.7502 3.75008 12.3099 3.75 13.0002V20.0002C3.75022 20.6903 4.30978 21.2502 5 21.2502H19C19.6902 21.2502 20.2498 20.6903 20.25 20.0002V13.0002C20.2499 12.3099 19.6903 11.7502 19 11.7502H5Z" fill="#212D34"/>
</svg>
