<svg width="24" height="24" viewBox="0 0 24 24" fill="none" xmlns="http://www.w3.org/2000/svg">
<path d="M6.26611 4.11185C8.14407 2.74358 10.4496 2.09042 12.7661 2.27103C15.0825 2.45183 17.2588 3.4544 18.9019 5.0972C20.5448 6.74015 21.5471 8.91653 21.728 11.2329C21.9088 13.5497 21.2556 15.8558 19.8872 17.7339C18.5188 19.6118 16.5246 20.9393 14.2642 21.4771C12.1086 21.9898 9.84626 21.7508 7.84814 20.8081L2.24072 22.7095C1.97045 22.801 1.67102 22.7316 1.46924 22.5298C1.26776 22.328 1.19798 22.0285 1.28955 21.7583L3.18994 16.1499C2.24791 14.1522 2.00928 11.8899 2.52197 9.73489C3.05989 7.47443 4.38817 5.48021 6.26611 4.11185ZM12.6489 3.76712C10.6888 3.61433 8.73795 4.16597 7.14893 5.32376C5.55988 6.48163 4.4361 8.16982 3.98096 10.0826C3.52602 11.9951 3.76934 14.0081 4.6665 15.7574C4.75908 15.9378 4.77451 16.1483 4.70947 16.3404L3.19678 20.8013L7.65869 19.2896L7.73193 19.2691C7.90314 19.2298 8.08393 19.2518 8.2417 19.3326C9.99102 20.2299 12.0038 20.473 13.9165 20.0181C15.8294 19.563 17.5174 18.4393 18.6753 16.8501C19.8331 15.261 20.3849 13.3104 20.2319 11.3501C20.0789 9.38998 19.2316 7.54801 17.8413 6.15775C16.451 4.76765 14.609 3.92004 12.6489 3.76712Z" fill="#212D34"/>
</svg>
