<svg width="24" height="24" viewBox="0 0 24 24" fill="none" xmlns="http://www.w3.org/2000/svg">
<path d="M15.584 1.26367C16.2134 1.32632 16.8057 1.60439 17.2568 2.05566H17.2559L21.9434 6.74316H21.9443C22.46 7.25869 22.7498 7.95834 22.75 8.6875V15.3125C22.7498 16.0417 22.46 16.7413 21.9443 17.2568L21.9434 17.2559L17.2559 21.9434L17.2568 21.9443C16.7413 22.46 16.0417 22.7498 15.3125 22.75H8.6875C7.95834 22.7498 7.25869 22.46 6.74316 21.9443V21.9434L2.05566 17.2559V17.2568C1.53998 16.7413 1.25025 16.0417 1.25 15.3125V8.6875L1.26367 8.41602C1.32632 7.78656 1.60439 7.1943 2.05566 6.74316L6.74316 2.05566C7.25869 1.53998 7.95834 1.25025 8.6875 1.25H15.3125L15.584 1.26367ZM8.68848 2.75C8.35706 2.75007 8.03904 2.88187 7.80469 3.11621L3.11621 7.80469C2.88187 8.03904 2.75007 8.35706 2.75 8.68848V15.3115L2.75586 15.4355C2.78435 15.7215 2.91121 15.9903 3.11621 16.1953L7.80469 20.8838L7.89648 20.9668C8.11883 21.1489 8.39853 21.2499 8.68848 21.25H15.3115C15.6429 21.2499 15.961 21.1181 16.1953 20.8838L20.8838 16.1953L20.9668 16.1035C21.1489 15.8812 21.2499 15.6015 21.25 15.3115V8.68848C21.2499 8.35706 21.1181 8.03904 20.8838 7.80469L16.1953 3.11621C15.9903 2.91121 15.7215 2.78435 15.4355 2.75586L15.3115 2.75H8.68848ZM12.0098 15C12.5621 15 13.0098 15.4477 13.0098 16C13.0098 16.5523 12.5621 17 12.0098 17H12C11.4477 17 11 16.5523 11 16C11 15.4477 11.4477 15 12 15H12.0098ZM12 7.25C12.4142 7.25 12.75 7.58579 12.75 8V12C12.75 12.4142 12.4142 12.75 12 12.75C11.5858 12.75 11.25 12.4142 11.25 12V8C11.25 7.58579 11.5858 7.25 12 7.25Z" fill="#212D34"/>
</svg>
