<svg width="24" height="24" viewBox="0 0 24 24" fill="none" xmlns="http://www.w3.org/2000/svg">
<g id="paperclip">
<path id="Vector" fill-rule="evenodd" clip-rule="evenodd" d="M20.5612 6.26846C20.6369 7.55528 20.1743 8.88642 19.0304 10.0303L10.5304 18.5303C9.88644 19.1742 9.1178 19.4494 8.36223 19.405C7.62509 19.3616 6.95769 19.0183 6.46969 18.5303C5.98169 18.0423 5.63842 17.3749 5.59506 16.6378C5.55061 15.8822 5.82577 15.1136 6.46968 14.4697L14.9697 5.96968C15.2626 5.67679 15.7374 5.67679 16.0303 5.96968C16.3232 6.26257 16.3232 6.73745 16.0303 7.03034L7.53034 15.5303C7.17425 15.8864 7.07441 16.2428 7.09247 16.5497C7.11161 16.8751 7.26834 17.2077 7.53035 17.4697C7.79235 17.7317 8.12495 17.8884 8.45031 17.9075C8.75724 17.9256 9.1136 17.8258 9.46969 17.4697L17.9697 8.96967C18.8258 8.11358 19.1131 7.19472 19.0638 6.35654C19.0134 5.49993 18.6067 4.66733 17.9697 4.03033C17.3327 3.39333 16.5001 2.98659 15.6435 2.93621C14.8053 2.8869 13.8864 3.17424 13.0304 4.03034L12.5 3.50001L13.0303 4.03034L4.53031 12.5303C3.17424 13.8864 2.6994 15.3678 2.77996 16.7372C2.8616 18.1251 3.51834 19.4577 4.53035 20.4697C5.54235 21.4817 6.87495 22.1384 8.26281 22.22C9.63224 22.3006 11.1136 21.8258 12.4697 20.4697L21.9697 10.9697C22.2626 10.6768 22.7375 10.6768 23.0303 10.9697C23.3232 11.2626 23.3232 11.7374 23.0304 12.0303L13.5304 21.5303C11.8864 23.1742 9.99281 23.8244 8.17473 23.7175C6.37509 23.6116 4.70769 22.7683 3.46969 21.5303C2.23169 20.2923 1.38842 18.6249 1.28255 16.8253C1.1756 15.0072 1.82575 13.1136 3.46965 11.4697L3.99998 12L3.46966 11.4697L11.9697 2.96968C13.1136 1.82577 14.4447 1.3631 15.7316 1.4388C16.9999 1.5134 18.1673 2.10667 19.0303 2.96967C19.8933 3.83266 20.4866 5.00007 20.5612 6.26846Z" fill="#212D34"/>
</g>
</svg>
