<svg width="24" height="24" viewBox="0 0 24 24" fill="none" xmlns="http://www.w3.org/2000/svg">
<path d="M7.1095 1.25098C7.77406 1.2462 8.41794 1.48169 8.922 1.91504C9.36466 2.29573 9.67302 2.80592 9.80579 3.37012L9.85266 3.61523L9.85364 3.62207H9.85266C9.97183 4.52558 10.1933 5.41274 10.5118 6.2666L10.5743 6.45215C10.7045 6.89137 10.7231 7.35756 10.6271 7.80762C10.5174 8.32161 10.2622 8.79326 9.8927 9.16699L9.88977 9.1709L9.03235 10.0273C10.2744 12.0339 11.9653 13.7246 13.9718 14.9668L14.8322 14.1064C15.2059 13.7369 15.6785 13.4827 16.1925 13.373C16.7056 13.2637 17.2393 13.3033 17.7306 13.4873H17.7316C18.4789 13.7662 19.2522 13.9701 20.0392 14.0967L20.3781 14.1465L20.3839 14.1475C21.0518 14.2417 21.6627 14.5782 22.0988 15.0928C22.5306 15.6026 22.7612 16.2523 22.7491 16.9199V19.917C22.7507 20.2999 22.673 20.6794 22.5197 21.0303C22.3662 21.381 22.1406 21.6963 21.8585 21.9551C21.5766 22.2136 21.2433 22.4106 20.881 22.5332C20.5183 22.6558 20.1333 22.7014 19.7521 22.667L19.7384 22.666C16.5471 22.3192 13.4811 21.2291 10.7872 19.4834L10.3214 19.1777C8.01606 17.6221 6.054 15.607 4.55969 13.2568V13.2578C2.80585 10.5504 1.71489 7.46757 1.37415 4.25977L1.37219 4.24805C1.33784 3.86789 1.3832 3.48382 1.505 3.12207C1.62678 2.76057 1.8231 2.42829 2.0802 2.14648C2.33748 1.86464 2.65108 1.63863 3.00012 1.48438C3.34913 1.33021 3.72698 1.25046 4.10852 1.25H7.1095V1.25098ZM3.98059 2.75684C3.85191 2.77042 3.72542 2.80398 3.60657 2.85645C3.44807 2.92651 3.30546 3.02927 3.1886 3.15723C3.07172 3.28534 2.98223 3.43721 2.92688 3.60156C2.87231 3.76387 2.8508 3.93587 2.86536 4.10645C3.16204 6.89247 4.07046 9.57639 5.52161 11.9678L5.81946 12.4424L5.82239 12.4482C7.20633 14.6261 9.02435 16.4933 11.1603 17.9346L11.5919 18.2168L11.5978 18.2207C14.0921 19.8383 16.9308 20.8494 19.8859 21.1729H19.8868C20.0601 21.1885 20.2357 21.168 20.4005 21.1123C20.5651 21.0566 20.7168 20.967 20.8448 20.8496C20.973 20.732 21.0749 20.5881 21.1447 20.4287C21.2143 20.2693 21.2498 20.0968 21.2491 19.9229V16.9199C21.2491 16.9138 21.25 16.9075 21.2501 16.9014C21.2577 16.595 21.1523 16.2964 20.9542 16.0625C20.7561 15.8287 20.4784 15.6757 20.1749 15.6328V15.6318C19.1612 15.4976 18.1652 15.2501 17.2072 14.8926H17.2052C16.9817 14.8087 16.7385 14.79 16.505 14.8398C16.2715 14.8898 16.0566 15.0059 15.8868 15.1738L14.6202 16.4404C14.3816 16.6789 14.0122 16.7292 13.7189 16.5625C11.0982 15.0723 8.92786 12.9019 7.43762 10.2812C7.27085 9.98787 7.32119 9.61861 7.55969 9.37988L8.82922 8.10938C8.99552 7.94 9.11072 7.72634 9.16028 7.49414C9.21001 7.26055 9.19158 7.0175 9.10754 6.79395L9.10657 6.79199C8.74916 5.8341 8.50153 4.83873 8.36731 3.8252L8.34583 3.71387C8.28553 3.45749 8.14554 3.22578 7.94446 3.05273C7.71459 2.85512 7.42043 2.7471 7.11731 2.75H4.11047L3.98059 2.75684Z" fill="#212D34"/>
</svg>
