<svg width="24" height="24" viewBox="0 0 24 24" fill="none" xmlns="http://www.w3.org/2000/svg">
<g id="printer">
<path id="Vector" fill-rule="evenodd" clip-rule="evenodd" d="M7 2.75C6.9337 2.75 6.87011 2.77634 6.82322 2.82322C6.77634 2.87011 6.75 2.9337 6.75 3V8.25H17.25V3C17.25 2.93369 17.2237 2.87011 17.1768 2.82322C17.1299 2.77634 17.0663 2.75 17 2.75H7ZM18.75 8.25V3C18.75 2.53587 18.5656 2.09075 18.2374 1.76256C17.9092 1.43437 17.4641 1.25 17 1.25H7C6.53587 1.25 6.09075 1.43437 5.76256 1.76256C5.43437 2.09075 5.25 2.53587 5.25 3V8.25H4C3.27065 8.25 2.57118 8.53973 2.05546 9.05546C1.53973 9.57118 1.25 10.2707 1.25 11V16C1.25 16.7293 1.53973 17.4288 2.05546 17.9445C2.57118 18.4603 3.27065 18.75 4 18.75H5.25V21C5.25 21.9665 6.0335 22.75 7 22.75H17C17.9665 22.75 18.75 21.9665 18.75 21V18.75H20C20.7293 18.75 21.4288 18.4603 21.9445 17.9445C22.4603 17.4288 22.75 16.7293 22.75 16V11C22.75 10.2707 22.4603 9.57118 21.9445 9.05546C21.4288 8.53973 20.7293 8.25 20 8.25H18.75ZM18 9.75H6H4C3.66848 9.75 3.35054 9.8817 3.11612 10.1161C2.8817 10.3505 2.75 10.6685 2.75 11V16C2.75 16.3315 2.8817 16.6495 3.11612 16.8839C3.35054 17.1183 3.66848 17.25 4 17.25H5.25V15C5.25 14.0335 6.0335 13.25 7 13.25H17C17.9665 13.25 18.75 14.0335 18.75 15V17.25H20C20.3315 17.25 20.6495 17.1183 20.8839 16.8839C21.1183 16.6495 21.25 16.3315 21.25 16V11C21.25 10.6685 21.1183 10.3505 20.8839 10.1161C20.6495 9.8817 20.3315 9.75 20 9.75H18ZM17.25 18V15C17.25 14.8619 17.1381 14.75 17 14.75H7C6.86193 14.75 6.75 14.8619 6.75 15V18V21C6.75 21.1381 6.86193 21.25 7 21.25H17C17.1381 21.25 17.25 21.1381 17.25 21V18Z" fill="#212D34"/>
</g>
</svg>
