<svg width="24" height="24" viewBox="0 0 24 24" fill="none" xmlns="http://www.w3.org/2000/svg">
<g id="question">
<path id="Vector" fill-rule="evenodd" clip-rule="evenodd" d="M11.4635 5.80284C11.9669 5.70271 12.4883 5.74546 12.9687 5.92626C13.4491 6.10706 13.8693 6.4187 14.1817 6.82591C14.4942 7.23312 14.6865 7.71965 14.7368 8.23045C14.7871 8.74126 14.6934 9.25595 14.4664 9.7163C14.2394 10.1766 13.8881 10.5643 13.4522 10.8353C12.9609 11.1408 12.4263 11.5394 12.0078 12.0367C11.5864 12.5375 11.25 13.1795 11.25 13.9477L11.25 13.9866V13.9966V13.9992V13.9998V14V14V14C11.25 14.4142 11.5858 14.75 12 14.75C12.4142 14.75 12.75 14.4142 12.75 14V14V14V13.9998V13.9992V13.9966V13.9866V13.9477C12.75 13.6405 12.8811 13.3287 13.1555 13.0025C13.4329 12.6729 13.8224 12.3715 14.2443 12.1091C14.9179 11.6902 15.4609 11.0912 15.8117 10.3797C16.1626 9.66829 16.3073 8.87286 16.2295 8.08343C16.1518 7.294 15.8547 6.54209 15.3718 5.91277C14.8889 5.28344 14.2395 4.80182 13.4971 4.5224C12.7547 4.24298 11.9489 4.17691 11.1709 4.33166C10.3929 4.48642 9.6737 4.85582 9.09474 5.39808C8.51578 5.94034 8.10013 6.6338 7.89482 7.40002C7.78762 7.80012 8.02505 8.21137 8.42515 8.31858C8.82525 8.42579 9.2365 8.18835 9.34371 7.78825C9.47656 7.29246 9.7455 6.84375 10.1201 6.49287C10.4948 6.142 10.9601 5.90298 11.4635 5.80284ZM12 17C11.4477 17 11 17.4477 11 18C11 18.5523 11.4477 19 12 19H12.01C12.5623 19 13.01 18.5523 13.01 18C13.01 17.4477 12.5623 17 12.01 17H12Z" fill="#212D34"/>
</g>
</svg>
