<svg width="24" height="24" viewBox="0 0 24 24" fill="none" xmlns="http://www.w3.org/2000/svg">
<g id="refresh">
<path id="Vector" fill-rule="evenodd" clip-rule="evenodd" d="M11.9986 3.75C9.81106 3.75037 7.71321 4.61953 6.16637 6.16637C4.61919 7.71354 3.75 9.81196 3.75 12C3.75 12.4142 3.41421 12.75 3 12.75C2.58579 12.75 2.25 12.4142 2.25 12C2.25 9.41414 3.27723 6.93419 5.10571 5.10571C6.93419 3.27723 9.41414 2.25 12 2.25H12.0028C14.7124 2.2602 17.3132 3.31748 19.2613 5.20077L19.2704 5.20959L19.2703 5.20967L20.25 6.18934V3C20.25 2.58579 20.5858 2.25 21 2.25C21.4142 2.25 21.75 2.58579 21.75 3V8C21.75 8.41421 21.4142 8.75 21 8.75H16C15.5858 8.75 15.25 8.41421 15.25 8C15.25 7.58579 15.5858 7.25 16 7.25H19.1893L18.2143 6.27492C16.5453 4.66368 14.3185 3.75909 11.9986 3.75ZM17.8336 17.8336C19.3808 16.2865 20.25 14.188 20.25 12C20.25 11.5858 20.5858 11.25 21 11.25C21.4142 11.25 21.75 11.5858 21.75 12C21.75 14.5859 20.7228 17.0658 18.8943 18.8943C17.0658 20.7228 14.5859 21.75 12 21.75L11.9972 21.75C9.28759 21.7398 6.68684 20.6825 4.73872 18.7992L4.72959 18.7904L4.72967 18.7903L3.75 17.8107V21C3.75 21.4142 3.41421 21.75 3 21.75C2.58579 21.75 2.25 21.4142 2.25 21V16C2.25 15.5858 2.58579 15.25 3 15.25H8C8.41421 15.25 8.75 15.5858 8.75 16C8.75 16.4142 8.41421 16.75 8 16.75H4.81066L5.78574 17.7251C7.45471 19.3363 9.68141 20.2409 12.0013 20.25C14.1889 20.2497 16.2868 19.3805 17.8336 17.8336Z" fill="#212D34"/>
</g>
</svg>
