<svg width="24" height="24" viewBox="0 0 24 24" fill="none" xmlns="http://www.w3.org/2000/svg">
<g id="rotate-left">
<path id="Vector" fill-rule="evenodd" clip-rule="evenodd" d="M11.9972 2.25L12 2.24999C13.9284 2.25 15.8134 2.82183 17.4168 3.89317C19.0202 4.96451 20.2699 6.48725 21.0078 8.26883C21.7458 10.0504 21.9389 12.0108 21.5627 13.9021C21.1865 15.7934 20.2579 17.5307 18.8943 18.8943C17.5307 20.2579 15.7934 21.1864 13.9021 21.5627C12.0108 21.9389 10.0504 21.7458 8.26884 21.0078C6.48726 20.2699 4.96452 19.0202 3.89317 17.4168C2.82183 15.8134 2.25 13.9284 2.25 12C2.25 11.5858 2.58579 11.25 3 11.25C3.41421 11.25 3.75 11.5858 3.75 12C3.75 13.6317 4.23385 15.2267 5.14038 16.5835C6.0469 17.9402 7.33537 18.9976 8.84286 19.622C10.3504 20.2464 12.0092 20.4098 13.6095 20.0915C15.2098 19.7731 16.6798 18.9874 17.8336 17.8336C18.9874 16.6798 19.7732 15.2098 20.0915 13.6095C20.4098 12.0091 20.2464 10.3503 19.622 8.84286C18.9976 7.33537 17.9402 6.0469 16.5835 5.14037C15.2271 4.23411 13.6326 3.75028 12.0014 3.75C9.68149 3.75909 7.45475 4.66367 5.78576 6.27489L4.81066 7.25H8C8.41421 7.25 8.75 7.58578 8.75 8C8.75 8.41421 8.41421 8.75 8 8.75H3C2.58579 8.75 2.25 8.41421 2.25 8V3C2.25 2.58578 2.58579 2.25 3 2.25C3.41421 2.25 3.75 2.58578 3.75 3V6.18934L4.72967 5.20967L4.73864 5.20069L4.73872 5.20077C6.68684 3.31747 9.28759 2.2602 11.9972 2.25Z" fill="#212D34"/>
</g>
</svg>
