<svg width="24" height="24" viewBox="0 0 24 24" fill="none" xmlns="http://www.w3.org/2000/svg">
<g id="rotate-right">
<path id="Vector" fill-rule="evenodd" clip-rule="evenodd" d="M12 3.75C10.3683 3.75 8.77326 4.23385 7.41655 5.14038C6.05984 6.0469 5.00242 7.33537 4.378 8.84286C3.75358 10.3504 3.5902 12.0092 3.90853 13.6095C4.22685 15.2098 5.01259 16.6798 6.16637 17.8336C7.32016 18.9874 8.79017 19.7732 10.3905 20.0915C11.9909 20.4098 13.6497 20.2464 15.1571 19.622C16.6646 18.9976 17.9531 17.9402 18.8596 16.5835C19.7661 15.2267 20.25 13.6317 20.25 12C20.25 11.5858 20.5858 11.25 21 11.25C21.4142 11.25 21.75 11.5858 21.75 12C21.75 13.9284 21.1782 15.8134 20.1068 17.4168C19.0355 19.0202 17.5127 20.2699 15.7312 21.0078C13.9496 21.7458 11.9892 21.9389 10.0979 21.5627C8.20656 21.1865 6.46927 20.2579 5.10571 18.8943C3.74215 17.5307 2.81355 15.7934 2.43735 13.9021C2.06114 12.0108 2.25422 10.0504 2.99218 8.26884C3.73013 6.48726 4.97982 4.96452 6.58319 3.89317C8.18657 2.82183 10.0716 2.25 12 2.25C14.7193 2.25 17.3141 3.32891 19.2598 5.19932L19.2703 5.20967L20.25 6.18934V3C20.25 2.58579 20.5858 2.25 21 2.25C21.4142 2.25 21.75 2.58579 21.75 3V8C21.75 8.41421 21.4142 8.75 21 8.75H16C15.5858 8.75 15.25 8.41421 15.25 8C15.25 7.58579 15.5858 7.25 16 7.25H19.1893L18.215 6.27566C16.5413 4.66918 14.3182 3.75 12 3.75Z" fill="#212D34"/>
</g>
</svg>
