<svg width="24" height="24" viewBox="0 0 24 24" fill="none" xmlns="http://www.w3.org/2000/svg">
<path d="M22.0226 1.25177C22.0551 1.25277 22.0873 1.25538 22.1193 1.26056C22.1303 1.26233 22.1415 1.26318 22.1525 1.26544C22.1927 1.27381 22.2322 1.28573 22.2706 1.3006C22.2826 1.30521 22.294 1.31097 22.3058 1.31622C22.3378 1.33053 22.3686 1.34721 22.3986 1.36603C22.4101 1.37328 22.4216 1.38055 22.4327 1.38849C22.4405 1.39401 22.4486 1.39925 22.4562 1.40509C22.4818 1.42483 22.5069 1.44603 22.5304 1.46954C22.5536 1.49273 22.5744 1.51751 22.5939 1.54279C22.5993 1.54982 22.6044 1.55707 22.6095 1.56427C22.6188 1.5772 22.6265 1.59094 22.6349 1.60431C22.6524 1.63233 22.6673 1.66139 22.6808 1.69122C22.6865 1.70374 22.6934 1.71558 22.6984 1.72833C22.7132 1.76641 22.7241 1.80564 22.7325 1.84552C22.7351 1.8575 22.7365 1.86959 22.7384 1.88165C22.7435 1.91303 22.7462 1.9445 22.7472 1.97638C22.7476 1.98911 22.7484 2.00173 22.7482 2.01447C22.7467 2.09276 22.7348 2.17154 22.7081 2.24786L15.7081 22.2479C15.6065 22.538 15.3375 22.7363 15.0304 22.7488C14.7232 22.7613 14.4394 22.5854 14.3146 22.3045L10.4318 13.5682L1.69543 9.68536C1.41451 9.56051 1.23868 9.27669 1.2511 8.96954C1.26371 8.66244 1.46201 8.39343 1.75208 8.29181L21.7521 1.29181C21.8281 1.26523 21.9065 1.25235 21.9845 1.25079C21.9972 1.25053 22.0099 1.25139 22.0226 1.25177ZM11.8947 13.1649L14.9171 19.9656L20.2042 4.85529L11.8947 13.1649ZM4.03333 9.08185L10.8341 12.1043L19.1456 3.79279L4.03333 9.08185Z" fill="#212D34"/>
</svg>
