<svg width="24" height="24" viewBox="0 0 24 24" fill="none" xmlns="http://www.w3.org/2000/svg">
<g id="sheet">
<path id="Vector" fill-rule="evenodd" clip-rule="evenodd" d="M5 3.75C4.30964 3.75 3.75 4.30964 3.75 5V8.25H9H15H20.25V5C20.25 4.30964 19.6904 3.75 19 3.75H5ZM21.75 9V5C21.75 3.48122 20.5188 2.25 19 2.25H5C3.48122 2.25 2.25 3.48122 2.25 5V9V15V19C2.25 20.5188 3.48122 21.75 5 21.75H9H15H19C20.5188 21.75 21.75 20.5188 21.75 19V15V9ZM20.25 9.75H15.75V14.25H20.25V9.75ZM20.25 15.75H15.75V20.25H19C19.6904 20.25 20.25 19.6904 20.25 19V15.75ZM14.25 20.25V15.75H9.75V20.25H14.25ZM8.25 20.25V15.75H3.75V19C3.75 19.6904 4.30964 20.25 5 20.25H8.25ZM3.75 14.25H8.25V9.75H3.75V14.25ZM9.75 9.75V14.25H14.25V9.75H9.75Z" fill="#212D34"/>
</g>
</svg>
