<svg width="24" height="24" viewBox="0 0 24 24" fill="none" xmlns="http://www.w3.org/2000/svg">
<g id="square-pen">
<path id="Vector" fill-rule="evenodd" clip-rule="evenodd" d="M19.025 3.03569C19.5635 2.4972 20.4365 2.4972 20.975 3.03569C21.5108 3.57147 21.5139 4.43917 20.982 4.97876L12.6235 13.4576L10.0194 14.0149L10.6772 11.3834L19.025 3.03569ZM22.0357 1.97503C20.9114 0.850751 19.0886 0.850747 17.9643 1.97503L9.46967 10.4697C9.37355 10.5658 9.30536 10.6862 9.27239 10.8181L8.27239 14.8181C8.2096 15.0693 8.28078 15.335 8.46069 15.5212C8.6406 15.7074 8.90379 15.7876 9.15695 15.7334L13.1569 14.8774C13.3002 14.8467 13.4313 14.7748 13.5341 14.6705L22.0502 6.03181C23.1608 4.90524 23.1543 3.09363 22.0357 1.97503ZM5 2.25002C3.48122 2.25002 2.25 3.48123 2.25 5.00002V19C2.25 20.5188 3.48122 21.75 5 21.75H19C20.5188 21.75 21.75 20.5188 21.75 19V12C21.75 11.5858 21.4142 11.25 21 11.25C20.5858 11.25 20.25 11.5858 20.25 12V19C20.25 19.6904 19.6904 20.25 19 20.25H5C4.30964 20.25 3.75 19.6904 3.75 19V5.00002C3.75 4.30966 4.30964 3.75002 5 3.75002H12C12.4142 3.75002 12.75 3.41423 12.75 3.00002C12.75 2.5858 12.4142 2.25002 12 2.25002H5Z" fill="#212D34"/>
</g>
</svg>
