<svg width="24" height="24" viewBox="0 0 24 24" fill="none" xmlns="http://www.w3.org/2000/svg">
<g id="square-check">
<path id="Vector" fill-rule="evenodd" clip-rule="evenodd" d="M3.75 5C3.75 4.30964 4.30964 3.75 5 3.75H19C19.6904 3.75 20.25 4.30964 20.25 5V19C20.25 19.6904 19.6904 20.25 19 20.25H5C4.30964 20.25 3.75 19.6904 3.75 19V5ZM5 2.25C3.48122 2.25 2.25 3.48122 2.25 5V19C2.25 20.5188 3.48122 21.75 5 21.75H19C20.5188 21.75 21.75 20.5188 21.75 19V5C21.75 3.48122 20.5188 2.25 19 2.25H5ZM15.5303 10.5303C15.8232 10.2374 15.8232 9.76256 15.5303 9.46967C15.2374 9.17678 14.7626 9.17678 14.4697 9.46967L11 12.9393L9.53033 11.4697C9.23744 11.1768 8.76256 11.1768 8.46967 11.4697C8.17678 11.7626 8.17678 12.2374 8.46967 12.5303L10.4697 14.5303C10.7626 14.8232 11.2374 14.8232 11.5303 14.5303L15.5303 10.5303Z" fill="#212D34"/>
</g>
</svg>
