<svg width="24" height="24" viewBox="0 0 24 24" fill="none" xmlns="http://www.w3.org/2000/svg">
<path d="M12.0078 2.25C12.4943 2.25 12.9723 2.37911 13.3926 2.62402C13.8119 2.8684 14.1587 3.21965 14.3984 3.6416L22.3975 17.6387C22.6387 18.0565 22.7655 18.5312 22.7656 19.0137C22.7657 19.496 22.6394 19.9699 22.3984 20.3877C22.1574 20.8057 21.8102 21.153 21.3926 21.3945C20.975 21.636 20.501 21.7632 20.0186 21.7637H4.01758V21.7627C3.53523 21.7658 3.06005 21.6427 2.64062 21.4043C2.21937 21.1647 1.86919 20.818 1.625 20.3994C1.38078 19.9808 1.25115 19.5052 1.25 19.0205C1.24893 18.5357 1.37573 18.0585 1.61816 17.6387H1.61914L9.61719 3.6416C9.85692 3.21967 10.2038 2.86842 10.623 2.62402C11.0433 2.37914 11.5214 2.25003 12.0078 2.25ZM12.0078 3.75C11.7868 3.75003 11.5699 3.80871 11.3789 3.91992C11.1879 4.03123 11.0299 4.19146 10.9209 4.38379L10.9189 4.38574L2.91895 18.3857L2.91797 18.3887C2.80779 18.5795 2.74954 18.7963 2.75 19.0166C2.75049 19.2368 2.80901 19.4533 2.91992 19.6436C3.03089 19.8338 3.19042 19.9917 3.38184 20.1006C3.57343 20.2095 3.79135 20.2657 4.01172 20.2637H20.0176L20.1807 20.2529C20.3426 20.2314 20.4992 20.178 20.6416 20.0957C20.8313 19.986 20.9891 19.8285 21.0986 19.6387C21.2082 19.4487 21.2657 19.233 21.2656 19.0137C21.2656 18.7944 21.2083 18.5786 21.0986 18.3887L21.0967 18.3857L13.0967 4.38574L13.0957 4.38379C12.9867 4.1915 12.8286 4.03124 12.6377 3.91992C12.4466 3.8086 12.2289 3.75 12.0078 3.75ZM12.0098 16C12.5621 16 13.0098 16.4477 13.0098 17C13.0098 17.5523 12.5621 18 12.0098 18H12C11.4477 18 11 17.5523 11 17C11 16.4477 11.4477 16 12 16H12.0098ZM12 8.25C12.4142 8.25 12.75 8.58579 12.75 9V13C12.75 13.4142 12.4142 13.75 12 13.75C11.5858 13.75 11.25 13.4142 11.25 13V9C11.25 8.58579 11.5858 8.25 12 8.25Z" fill="#212D34"/>
</svg>
